<?xml version="1.0" encoding="iso-8859-1"?>
<!-- Uploaded to: SVG Repo, www.svgrepo.com, Generator: SVG Repo Mixer Tools -->
<svg height="800px" width="800px" version="1.1" id="Layer_1" xmlns="http://www.w3.org/2000/svg" xmlns:xlink="http://www.w3.org/1999/xlink" 
	 viewBox="0 0 508 508" xml:space="preserve">
<path style="fill:#F4EFEF;" d="M472,223c1.2,0,2,0.8,2,2v101.6h2c14.4,0,26-11.6,26-26v-96c0-14.4-12.4-26-26.8-26h-4.4
	c-1.2,0-2-0.8-2-2v-6c0-27.6-22.8-49.2-50-49.2H54c-27.6,0-48,19.6-48,47.2V337c0,27.6,21.6,49.6,48.8,49.6H420
	c27.6,0,50-22.4,50-49.6v-8.4V225C470,223.8,470.8,223,472,223z M436,221.4l2,112.4c0,14.4-9.2,28-23.6,28h-356
	c-14.4,0-24.4-14-24.4-28.4V173c0-14.4,10-23.2,24.4-23.2h356c14.4,0,22,6,22,20.4L436,221.4z"/>
<path style="fill:#DF5C4E;" d="M414,153.4H58c-12,0-20.4,7.2-20.4,19.2V333c0,12,8,24.4,20.4,24.4h356.4c12,0,25.6-10.8,25.6-22.8
	v-160C440,162.6,426.4,153.4,414,153.4z M146,319.4c0,5.6-4.4,10-10,10h-16c-5.6,0-10-4.4-10-10v-128c0-5.6,4.4-10,10-10h16
	c5.6,0,10,4.4,10,10V319.4z"/>
<path style="fill:#F4EFEF;" d="M142,191.4c0-3.2-2.8-6-6-6h-16c-3.2,0-6,2.8-6,6v128c0,3.2,2.8,6,6,6h16c3.2,0,6-2.8,6-6V191.4z"/>
<path d="M56.8,392.6C26,392.6,0,367,0,337V168.6c0-29.6,25.2-53.2,57.6-53.2h364.8c30.8,0,55.6,24.8,55.6,55.2v2
	c16.8,0.4,30,14.4,30,32v96c0,17.6-14.4,32-32,32l0,0v4.4c0,30.8-24.8,55.6-55.2,55.6H56.8z M57.6,123.4C29.6,123.4,8,143,8,168.6
	V337c0,26,22.4,47.6,48.8,47.6h364c26,0,47.2-21.6,47.2-47.6v-8.4c0-1.2,0.4-2,1.2-2.8s2-1.2,2.8-1.2h4c13.2,0,24-10.8,24-24v-96
	c0-13.6-10-24-23.2-24l0,0h-3.2c-2.4,0-4-2-4-4l0.4-6c0-26-21.2-47.2-47.6-47.2H57.6z"/>
<path d="M472,333.4c-2.4,0-4-1.6-4-4v-104c0-2.4,1.6-4,4-4s4,1.6,4,4v104C476,331.8,474.4,333.4,472,333.4z"/>
<path d="M418,363.4H62c-15.6,0-30-14.8-30-30.4V172.6c0-16,15.2-25.2,30-25.2h356c15.6,0,27.2,11.6,27.2,26.8c0,2.4-1.6,4-4,4
	s-4-1.6-4-4c0-10.8-8-18.8-19.2-18.8H62c-10.8,0-22,6.4-22,17.2V333c0,11.2,11.2,22.4,22,22.4h356.4c11.2,0,18-11.2,18-22v-112
	c0-2.4,1.6-4,4-4s4,1.6,4,4v112C444,348.2,434.4,363.4,418,363.4z"/>
<path d="M136,331.4h-16c-6.8,0-12-7.2-12-13.2v-128c0-6.4,4.8-10.8,12-10.8h16c7.2,0,12,4.4,12,10.8v128
	C148,324.2,142.8,331.4,136,331.4z M120,187.4c-2,0-4,0.4-4,2.8v128c0,2.4,2,5.2,4,5.2h16c2,0,4-2.8,4-5.2v-128c0-2.4-2-2.8-4-2.8
	H120z"/>
</svg>